<svg width="196" height="81" viewBox="0 0 196 81" fill="none" xmlns="http://www.w3.org/2000/svg">
<path d="M63.645 53.86C63.645 53.02 63.815 52.285 64.155 51.655C64.495 51.015 64.96 50.52 65.55 50.17C66.15 49.82 66.815 49.645 67.545 49.645C68.265 49.645 68.89 49.8 69.42 50.11C69.95 50.42 70.345 50.81 70.605 51.28V49.78H71.985V58H70.605V56.47C70.335 56.95 69.93 57.35 69.39 57.67C68.86 57.98 68.24 58.135 67.53 58.135C66.8 58.135 66.14 57.955 65.55 57.595C64.96 57.235 64.495 56.73 64.155 56.08C63.815 55.43 63.645 54.69 63.645 53.86ZM70.605 53.875C70.605 53.255 70.48 52.715 70.23 52.255C69.98 51.795 69.64 51.445 69.21 51.205C68.79 50.955 68.325 50.83 67.815 50.83C67.305 50.83 66.84 50.95 66.42 51.19C66 51.43 65.665 51.78 65.415 52.24C65.165 52.7 65.04 53.24 65.04 53.86C65.04 54.49 65.165 55.04 65.415 55.51C65.665 55.97 66 56.325 66.42 56.575C66.84 56.815 67.305 56.935 67.815 56.935C68.325 56.935 68.79 56.815 69.21 56.575C69.64 56.325 69.98 55.97 70.23 55.51C70.48 55.04 70.605 54.495 70.605 53.875ZM75.6567 51.115C75.8967 50.645 76.2367 50.28 76.6767 50.02C77.1267 49.76 77.6717 49.63 78.3117 49.63V51.04H77.9517C76.4217 51.04 75.6567 51.87 75.6567 53.53V58H74.2917V49.78H75.6567V51.115ZM79.3774 53.86C79.3774 53.02 79.5474 52.285 79.8874 51.655C80.2274 51.015 80.6924 50.52 81.2824 50.17C81.8824 49.82 82.5524 49.645 83.2924 49.645C84.0024 49.645 84.6224 49.805 85.1524 50.125C85.6924 50.435 86.0874 50.82 86.3374 51.28V49.78H87.7174V61.9H86.3374V56.485C86.0774 56.945 85.6774 57.335 85.1374 57.655C84.5974 57.975 83.9674 58.135 83.2474 58.135C82.5274 58.135 81.8724 57.955 81.2824 57.595C80.6924 57.235 80.2274 56.73 79.8874 56.08C79.5474 55.43 79.3774 54.69 79.3774 53.86ZM86.3374 53.875C86.3374 53.255 86.2124 52.715 85.9624 52.255C85.7124 51.795 85.3724 51.445 84.9424 51.205C84.5224 50.955 84.0574 50.83 83.5474 50.83C83.0374 50.83 82.5724 50.95 82.1524 51.19C81.7324 51.43 81.3974 51.78 81.1474 52.24C80.8974 52.7 80.7724 53.24 80.7724 53.86C80.7724 54.49 80.8974 55.04 81.1474 55.51C81.3974 55.97 81.7324 56.325 82.1524 56.575C82.5724 56.815 83.0374 56.935 83.5474 56.935C84.0574 56.935 84.5224 56.815 84.9424 56.575C85.3724 56.325 85.7124 55.97 85.9624 55.51C86.2124 55.04 86.3374 54.495 86.3374 53.875ZM97.3141 49.78V58H95.9491V56.785C95.6891 57.205 95.3241 57.535 94.8541 57.775C94.3941 58.005 93.8841 58.12 93.3241 58.12C92.6841 58.12 92.1091 57.99 91.5991 57.73C91.0891 57.46 90.6841 57.06 90.3841 56.53C90.0941 56 89.9491 55.355 89.9491 54.595V49.78H91.2991V54.415C91.2991 55.225 91.5041 55.85 91.9141 56.29C92.3241 56.72 92.8841 56.935 93.5941 56.935C94.3241 56.935 94.8991 56.71 95.3191 56.26C95.7391 55.81 95.9491 55.155 95.9491 54.295V49.78H97.3141ZM100.324 48.445C100.064 48.445 99.8439 48.355 99.6639 48.175C99.4839 47.995 99.3939 47.775 99.3939 47.515C99.3939 47.255 99.4839 47.035 99.6639 46.855C99.8439 46.675 100.064 46.585 100.324 46.585C100.574 46.585 100.784 46.675 100.954 46.855C101.134 47.035 101.224 47.255 101.224 47.515C101.224 47.775 101.134 47.995 100.954 48.175C100.784 48.355 100.574 48.445 100.324 48.445ZM100.984 49.78V58H99.6189V49.78H100.984ZM104.975 50.905V55.75C104.975 56.15 105.06 56.435 105.23 56.605C105.4 56.765 105.695 56.845 106.115 56.845H107.12V58H105.89C105.13 58 104.56 57.825 104.18 57.475C103.8 57.125 103.61 56.55 103.61 55.75V50.905H102.545V49.78H103.61V47.71H104.975V49.78H107.12V50.905H104.975ZM116.274 53.575C116.274 53.835 116.259 54.11 116.229 54.4H109.659C109.709 55.21 109.984 55.845 110.484 56.305C110.994 56.755 111.609 56.98 112.329 56.98C112.919 56.98 113.409 56.845 113.799 56.575C114.199 56.295 114.479 55.925 114.639 55.465H116.109C115.889 56.255 115.449 56.9 114.789 57.4C114.129 57.89 113.309 58.135 112.329 58.135C111.549 58.135 110.849 57.96 110.229 57.61C109.619 57.26 109.139 56.765 108.789 56.125C108.439 55.475 108.264 54.725 108.264 53.875C108.264 53.025 108.434 52.28 108.774 51.64C109.114 51 109.589 50.51 110.199 50.17C110.819 49.82 111.529 49.645 112.329 49.645C113.109 49.645 113.799 49.815 114.399 50.155C114.999 50.495 115.459 50.965 115.779 51.565C116.109 52.155 116.274 52.825 116.274 53.575ZM114.864 53.29C114.864 52.77 114.749 52.325 114.519 51.955C114.289 51.575 113.974 51.29 113.574 51.1C113.184 50.9 112.749 50.8 112.269 50.8C111.579 50.8 110.989 51.02 110.499 51.46C110.019 51.9 109.744 52.51 109.674 53.29H114.864ZM119.741 50.905V55.75C119.741 56.15 119.826 56.435 119.996 56.605C120.166 56.765 120.461 56.845 120.881 56.845H121.886V58H120.656C119.896 58 119.326 57.825 118.946 57.475C118.566 57.125 118.376 56.55 118.376 55.75V50.905H117.311V49.78H118.376V47.71H119.741V49.78H121.886V50.905H119.741ZM123.03 53.86C123.03 53.02 123.2 52.285 123.54 51.655C123.88 51.015 124.345 50.52 124.935 50.17C125.535 49.82 126.2 49.645 126.93 49.645C127.65 49.645 128.275 49.8 128.805 50.11C129.335 50.42 129.73 50.81 129.99 51.28V49.78H131.37V58H129.99V56.47C129.72 56.95 129.315 57.35 128.775 57.67C128.245 57.98 127.625 58.135 126.915 58.135C126.185 58.135 125.525 57.955 124.935 57.595C124.345 57.235 123.88 56.73 123.54 56.08C123.2 55.43 123.03 54.69 123.03 53.86ZM129.99 53.875C129.99 53.255 129.865 52.715 129.615 52.255C129.365 51.795 129.025 51.445 128.595 51.205C128.175 50.955 127.71 50.83 127.2 50.83C126.69 50.83 126.225 50.95 125.805 51.19C125.385 51.43 125.05 51.78 124.8 52.24C124.55 52.7 124.425 53.24 124.425 53.86C124.425 54.49 124.55 55.04 124.8 55.51C125.05 55.97 125.385 56.325 125.805 56.575C126.225 56.815 126.69 56.935 127.2 56.935C127.71 56.935 128.175 56.815 128.595 56.575C129.025 56.325 129.365 55.97 129.615 55.51C129.865 55.04 129.99 54.495 129.99 53.875Z" fill="#647E68"/>
<path d="M9.288 5.988C12.144 5.988 14.34 6.804 15.876 8.436C17.436 10.044 18.216 12.372 18.216 15.42V21.324C18.216 24.252 17.436 26.508 15.876 28.092C14.34 29.652 12.084 30.432 9.108 30.432C7.068 30.432 4.932 30.36 2.7 30.216V6.132C4.86 6.036 7.056 5.988 9.288 5.988ZM9.108 8.58C8.364 8.58 7.248 8.604 5.76 8.652V27.588C7.176 27.732 8.292 27.804 9.108 27.804C10.956 27.804 12.42 27.276 13.5 26.22C14.604 25.14 15.156 23.592 15.156 21.576V15.204C15.156 13.02 14.628 11.376 13.572 10.272C12.516 9.144 11.028 8.58 9.108 8.58ZM28.8464 12C30.8624 12 32.3984 12.552 33.4544 13.656C34.5104 14.76 35.0384 16.356 35.0384 18.444V22.152H25.7864V24.276C25.7864 25.5 26.0744 26.388 26.6504 26.94C27.2504 27.468 28.1864 27.732 29.4584 27.732C30.7064 27.732 32.2664 27.54 34.1384 27.156L34.2104 29.82C31.9784 30.228 30.3824 30.432 29.4224 30.432C27.0464 30.432 25.3304 29.916 24.2744 28.884C23.2424 27.852 22.7264 26.256 22.7264 24.096V18.444C22.7264 16.356 23.2304 14.76 24.2384 13.656C25.2704 12.552 26.8064 12 28.8464 12ZM28.8464 14.556C27.9104 14.556 27.1664 14.856 26.6144 15.456C26.0624 16.032 25.7864 16.872 25.7864 17.976V19.704H31.9784V18.084C31.9784 16.932 31.6904 16.056 31.1144 15.456C30.5624 14.856 29.8064 14.556 28.8464 14.556ZM33.2384 5.34L29.8184 10.344H27.2264L29.9624 5.34H33.2384ZM42.068 14.772C42.692 13.884 43.412 13.2 44.228 12.72C45.044 12.24 45.896 12 46.784 12C48.272 12 49.424 12.528 50.24 13.584C51.056 14.616 51.464 16.128 51.464 18.12V23.808C51.464 25.992 50.948 27.648 49.916 28.776C48.884 29.88 47.288 30.432 45.128 30.432C43.016 30.432 41.468 29.892 40.484 28.812C39.5 27.732 39.008 26.088 39.008 23.88V5.412H42.068V14.772ZM46.064 14.736C45.368 14.736 44.66 15 43.94 15.528C43.22 16.056 42.596 16.776 42.068 17.688V24.24C42.068 25.416 42.332 26.316 42.86 26.94C43.412 27.564 44.168 27.876 45.128 27.876C47.312 27.876 48.404 26.64 48.404 24.168V18.552C48.404 16.008 47.624 14.736 46.064 14.736ZM62.1093 12C64.2453 12 65.8293 12.576 66.8613 13.728C67.9173 14.856 68.4453 16.464 68.4453 18.552V23.88C68.4453 25.968 67.9173 27.588 66.8613 28.74C65.8293 29.868 64.2453 30.432 62.1093 30.432C59.9733 30.432 58.3773 29.868 57.3213 28.74C56.2893 27.588 55.7733 25.968 55.7733 23.88V18.552C55.7733 16.464 56.2893 14.856 57.3213 13.728C58.3773 12.576 59.9733 12 62.1093 12ZM62.1093 14.556C61.0773 14.556 60.2733 14.88 59.6973 15.528C59.1213 16.176 58.8333 17.1 58.8333 18.3V24.132C58.8333 25.332 59.1213 26.256 59.6973 26.904C60.2733 27.552 61.0773 27.876 62.1093 27.876C63.1413 27.876 63.9453 27.552 64.5213 26.904C65.0973 26.256 65.3853 25.332 65.3853 24.132V18.264C65.3853 17.064 65.0973 16.152 64.5213 15.528C63.9453 14.88 63.1413 14.556 62.1093 14.556ZM80.7818 12C81.1178 12 81.3818 12.024 81.5738 12.072V15.528C81.2138 15.456 80.7458 15.42 80.1698 15.42C78.4898 15.42 77.1578 16.26 76.1738 17.94V30H73.1138V12.432H75.9938V15.06C76.6418 14.076 77.3618 13.32 78.1538 12.792C78.9698 12.264 79.8458 12 80.7818 12ZM89.6574 12C91.7214 12 93.2214 12.468 94.1574 13.404C95.1174 14.316 95.5974 15.78 95.5974 17.796V30H92.6814V27.192C91.2894 29.352 89.7174 30.432 87.9654 30.432C86.5734 30.432 85.4574 29.952 84.6174 28.992C83.8014 28.032 83.3934 26.724 83.3934 25.068V24.06C83.3934 22.62 83.8854 21.432 84.8694 20.496C85.8534 19.536 87.1734 19.056 88.8294 19.056C89.7414 19.056 90.9774 19.212 92.5374 19.524V17.544C92.5374 16.512 92.2974 15.768 91.8174 15.312C91.3614 14.856 90.6414 14.628 89.6574 14.628C88.5054 14.628 86.8854 14.808 84.7974 15.168V12.54C87.0534 12.18 88.6734 12 89.6574 12ZM89.5854 21.432C88.5774 21.432 87.8094 21.696 87.2814 22.224C86.7534 22.752 86.4894 23.496 86.4894 24.456V24.852C86.4894 25.74 86.6934 26.436 87.1014 26.94C87.5094 27.444 88.0254 27.696 88.6494 27.696C89.2974 27.696 89.9574 27.42 90.6294 26.868C91.3254 26.292 91.9614 25.488 92.5374 24.456V21.684C91.6254 21.516 90.6414 21.432 89.5854 21.432ZM113.018 5.988C114.314 5.988 116.006 6.18 118.094 6.564L118.022 9.264C116.054 8.88 114.386 8.688 113.018 8.688C111.626 8.688 110.618 8.964 109.994 9.516C109.394 10.068 109.094 10.908 109.094 12.036V12.972C109.094 13.572 109.166 14.052 109.31 14.412C109.478 14.748 109.766 15.048 110.174 15.312C110.582 15.552 111.194 15.804 112.01 16.068L115.358 17.184C116.966 17.736 118.094 18.468 118.742 19.38C119.414 20.292 119.75 21.624 119.75 23.376V24.06C119.75 26.196 119.126 27.792 117.878 28.848C116.654 29.904 114.638 30.432 111.83 30.432C110.462 30.432 108.71 30.192 106.574 29.712L106.646 26.94C108.638 27.42 110.342 27.66 111.758 27.66C113.558 27.66 114.83 27.396 115.574 26.868C116.318 26.316 116.69 25.464 116.69 24.312V23.124C116.69 22.284 116.498 21.648 116.114 21.216C115.754 20.76 115.106 20.376 114.17 20.064L110.462 18.84C108.806 18.288 107.654 17.58 107.006 16.716C106.358 15.828 106.034 14.496 106.034 12.72V12.324C106.034 10.236 106.586 8.664 107.69 7.608C108.818 6.528 110.594 5.988 113.018 5.988ZM129.504 12C131.64 12 133.224 12.576 134.256 13.728C135.312 14.856 135.84 16.464 135.84 18.552V23.88C135.84 25.968 135.312 27.588 134.256 28.74C133.224 29.868 131.64 30.432 129.504 30.432C127.368 30.432 125.772 29.868 124.716 28.74C123.684 27.588 123.168 25.968 123.168 23.88V18.552C123.168 16.464 123.684 14.856 124.716 13.728C125.772 12.576 127.368 12 129.504 12ZM129.504 14.556C128.472 14.556 127.668 14.88 127.092 15.528C126.516 16.176 126.228 17.1 126.228 18.3V24.132C126.228 25.332 126.516 26.256 127.092 26.904C127.668 27.552 128.472 27.876 129.504 27.876C130.536 27.876 131.34 27.552 131.916 26.904C132.492 26.256 132.78 25.332 132.78 24.132V18.264C132.78 17.064 132.492 16.152 131.916 15.528C131.34 14.88 130.536 14.556 129.504 14.556ZM145.767 12C147.831 12 149.331 12.468 150.267 13.404C151.227 14.316 151.707 15.78 151.707 17.796V30H148.791V27.192C147.399 29.352 145.827 30.432 144.075 30.432C142.683 30.432 141.567 29.952 140.727 28.992C139.911 28.032 139.503 26.724 139.503 25.068V24.06C139.503 22.62 139.995 21.432 140.979 20.496C141.963 19.536 143.283 19.056 144.939 19.056C145.851 19.056 147.087 19.212 148.647 19.524V17.544C148.647 16.512 148.407 15.768 147.927 15.312C147.471 14.856 146.751 14.628 145.767 14.628C144.615 14.628 142.995 14.808 140.907 15.168V12.54C143.163 12.18 144.783 12 145.767 12ZM145.695 21.432C144.687 21.432 143.919 21.696 143.391 22.224C142.863 22.752 142.599 23.496 142.599 24.456V24.852C142.599 25.74 142.803 26.436 143.211 26.94C143.619 27.444 144.135 27.696 144.759 27.696C145.407 27.696 146.067 27.42 146.739 26.868C147.435 26.292 148.071 25.488 148.647 24.456V21.684C147.735 21.516 146.751 21.432 145.695 21.432ZM164.243 12C164.579 12 164.843 12.024 165.035 12.072V15.528C164.675 15.456 164.207 15.42 163.631 15.42C161.951 15.42 160.619 16.26 159.635 17.94V30H156.575V12.432H159.455V15.06C160.103 14.076 160.823 13.32 161.615 12.792C162.431 12.264 163.307 12 164.243 12ZM173.796 12C175.812 12 177.348 12.552 178.404 13.656C179.46 14.76 179.988 16.356 179.988 18.444V22.152H170.736V24.276C170.736 25.5 171.024 26.388 171.6 26.94C172.2 27.468 173.136 27.732 174.408 27.732C175.656 27.732 177.216 27.54 179.088 27.156L179.16 29.82C176.928 30.228 175.332 30.432 174.372 30.432C171.996 30.432 170.28 29.916 169.224 28.884C168.192 27.852 167.676 26.256 167.676 24.096V18.444C167.676 16.356 168.18 14.76 169.188 13.656C170.22 12.552 171.756 12 173.796 12ZM173.796 14.556C172.86 14.556 172.116 14.856 171.564 15.456C171.012 16.032 170.736 16.872 170.736 17.976V19.704H176.928V18.084C176.928 16.932 176.64 16.056 176.064 15.456C175.512 14.856 174.756 14.556 173.796 14.556ZM189.177 12C190.185 12 191.397 12.144 192.813 12.432L192.741 15.024C191.493 14.736 190.353 14.592 189.321 14.592C187.161 14.592 186.081 15.288 186.081 16.68V17.004C186.081 17.436 186.189 17.784 186.405 18.048C186.645 18.312 187.065 18.588 187.665 18.876L191.049 20.46C193.089 21.42 194.109 22.824 194.109 24.672V25.464C194.085 27.12 193.581 28.368 192.597 29.208C191.637 30.024 190.113 30.432 188.025 30.432C186.945 30.432 185.397 30.18 183.381 29.676L183.525 26.94C185.325 27.468 186.801 27.732 187.953 27.732C189.129 27.732 189.945 27.576 190.401 27.264C190.857 26.928 191.085 26.388 191.085 25.644V25.284C191.085 24.708 190.965 24.252 190.725 23.916C190.509 23.58 190.137 23.292 189.609 23.052L186.117 21.504C185.061 21.024 184.281 20.448 183.777 19.776C183.297 19.104 183.057 18.324 183.057 17.436V16.932C183.105 15.3 183.609 14.076 184.569 13.26C185.553 12.42 187.089 12 189.177 12Z" fill="#647E68"/>
</svg>
