<svg width="196" height="77" viewBox="0 0 196 77" fill="none" xmlns="http://www.w3.org/2000/svg">
<path d="M0.645 47.86C0.645 47.02 0.815 46.285 1.155 45.655C1.495 45.015 1.96 44.52 2.55 44.17C3.15 43.82 3.815 43.645 4.545 43.645C5.265 43.645 5.89 43.8 6.42 44.11C6.95 44.42 7.345 44.81 7.605 45.28V43.78H8.985V52H7.605V50.47C7.335 50.95 6.93 51.35 6.39 51.67C5.86 51.98 5.24 52.135 4.53 52.135C3.8 52.135 3.14 51.955 2.55 51.595C1.96 51.235 1.495 50.73 1.155 50.08C0.815 49.43 0.645 48.69 0.645 47.86ZM7.605 47.875C7.605 47.255 7.48 46.715 7.23 46.255C6.98 45.795 6.64 45.445 6.21 45.205C5.79 44.955 5.325 44.83 4.815 44.83C4.305 44.83 3.84 44.95 3.42 45.19C3 45.43 2.665 45.78 2.415 46.24C2.165 46.7 2.04 47.24 2.04 47.86C2.04 48.49 2.165 49.04 2.415 49.51C2.665 49.97 3 50.325 3.42 50.575C3.84 50.815 4.305 50.935 4.815 50.935C5.325 50.935 5.79 50.815 6.21 50.575C6.64 50.325 6.98 49.97 7.23 49.51C7.48 49.04 7.605 48.495 7.605 47.875ZM12.6567 45.115C12.8967 44.645 13.2367 44.28 13.6767 44.02C14.1267 43.76 14.6717 43.63 15.3117 43.63V45.04H14.9517C13.4217 45.04 12.6567 45.87 12.6567 47.53V52H11.2917V43.78H12.6567V45.115ZM16.3774 47.86C16.3774 47.02 16.5474 46.285 16.8874 45.655C17.2274 45.015 17.6924 44.52 18.2824 44.17C18.8824 43.82 19.5524 43.645 20.2924 43.645C21.0024 43.645 21.6224 43.805 22.1524 44.125C22.6924 44.435 23.0874 44.82 23.3374 45.28V43.78H24.7174V55.9H23.3374V50.485C23.0774 50.945 22.6774 51.335 22.1374 51.655C21.5974 51.975 20.9674 52.135 20.2474 52.135C19.5274 52.135 18.8724 51.955 18.2824 51.595C17.6924 51.235 17.2274 50.73 16.8874 50.08C16.5474 49.43 16.3774 48.69 16.3774 47.86ZM23.3374 47.875C23.3374 47.255 23.2124 46.715 22.9624 46.255C22.7124 45.795 22.3724 45.445 21.9424 45.205C21.5224 44.955 21.0574 44.83 20.5474 44.83C20.0374 44.83 19.5724 44.95 19.1524 45.19C18.7324 45.43 18.3974 45.78 18.1474 46.24C17.8974 46.7 17.7724 47.24 17.7724 47.86C17.7724 48.49 17.8974 49.04 18.1474 49.51C18.3974 49.97 18.7324 50.325 19.1524 50.575C19.5724 50.815 20.0374 50.935 20.5474 50.935C21.0574 50.935 21.5224 50.815 21.9424 50.575C22.3724 50.325 22.7124 49.97 22.9624 49.51C23.2124 49.04 23.3374 48.495 23.3374 47.875ZM34.3141 43.78V52H32.9491V50.785C32.6891 51.205 32.3241 51.535 31.8541 51.775C31.3941 52.005 30.8841 52.12 30.3241 52.12C29.6841 52.12 29.1091 51.99 28.5991 51.73C28.0891 51.46 27.6841 51.06 27.3841 50.53C27.0941 50 26.9491 49.355 26.9491 48.595V43.78H28.2991V48.415C28.2991 49.225 28.5041 49.85 28.9141 50.29C29.3241 50.72 29.8841 50.935 30.5941 50.935C31.3241 50.935 31.8991 50.71 32.3191 50.26C32.7391 49.81 32.9491 49.155 32.9491 48.295V43.78H34.3141ZM37.3239 42.445C37.0639 42.445 36.8439 42.355 36.6639 42.175C36.4839 41.995 36.3939 41.775 36.3939 41.515C36.3939 41.255 36.4839 41.035 36.6639 40.855C36.8439 40.675 37.0639 40.585 37.3239 40.585C37.5739 40.585 37.7839 40.675 37.9539 40.855C38.1339 41.035 38.2239 41.255 38.2239 41.515C38.2239 41.775 38.1339 41.995 37.9539 42.175C37.7839 42.355 37.5739 42.445 37.3239 42.445ZM37.9839 43.78V52H36.6189V43.78H37.9839ZM41.9753 44.905V49.75C41.9753 50.15 42.0603 50.435 42.2303 50.605C42.4003 50.765 42.6953 50.845 43.1153 50.845H44.1203V52H42.8903C42.1303 52 41.5603 51.825 41.1803 51.475C40.8003 51.125 40.6103 50.55 40.6103 49.75V44.905H39.5453V43.78H40.6103V41.71H41.9753V43.78H44.1203V44.905H41.9753ZM53.2741 47.575C53.2741 47.835 53.2591 48.11 53.2291 48.4H46.6591C46.7091 49.21 46.9841 49.845 47.4841 50.305C47.9941 50.755 48.6091 50.98 49.3291 50.98C49.9191 50.98 50.4091 50.845 50.7991 50.575C51.1991 50.295 51.4791 49.925 51.6391 49.465H53.1091C52.8891 50.255 52.4491 50.9 51.7891 51.4C51.1291 51.89 50.3091 52.135 49.3291 52.135C48.5491 52.135 47.8491 51.96 47.2291 51.61C46.6191 51.26 46.1391 50.765 45.7891 50.125C45.4391 49.475 45.2641 48.725 45.2641 47.875C45.2641 47.025 45.4341 46.28 45.7741 45.64C46.1141 45 46.5891 44.51 47.1991 44.17C47.8191 43.82 48.5291 43.645 49.3291 43.645C50.1091 43.645 50.7991 43.815 51.3991 44.155C51.9991 44.495 52.4591 44.965 52.7791 45.565C53.1091 46.155 53.2741 46.825 53.2741 47.575ZM51.8641 47.29C51.8641 46.77 51.7491 46.325 51.5191 45.955C51.2891 45.575 50.9741 45.29 50.5741 45.1C50.1841 44.9 49.7491 44.8 49.2691 44.8C48.5791 44.8 47.9891 45.02 47.4991 45.46C47.0191 45.9 46.7441 46.51 46.6741 47.29H51.8641ZM56.7409 44.905V49.75C56.7409 50.15 56.8259 50.435 56.9959 50.605C57.1659 50.765 57.4609 50.845 57.8809 50.845H58.8859V52H57.6559C56.8959 52 56.3259 51.825 55.9459 51.475C55.5659 51.125 55.3759 50.55 55.3759 49.75V44.905H54.3109V43.78H55.3759V41.71H56.7409V43.78H58.8859V44.905H56.7409ZM60.0298 47.86C60.0298 47.02 60.1998 46.285 60.5398 45.655C60.8798 45.015 61.3448 44.52 61.9348 44.17C62.5348 43.82 63.1998 43.645 63.9298 43.645C64.6498 43.645 65.2748 43.8 65.8048 44.11C66.3348 44.42 66.7298 44.81 66.9898 45.28V43.78H68.3698V52H66.9898V50.47C66.7198 50.95 66.3148 51.35 65.7748 51.67C65.2448 51.98 64.6248 52.135 63.9148 52.135C63.1848 52.135 62.5248 51.955 61.9348 51.595C61.3448 51.235 60.8798 50.73 60.5398 50.08C60.1998 49.43 60.0298 48.69 60.0298 47.86ZM66.9898 47.875C66.9898 47.255 66.8648 46.715 66.6148 46.255C66.3648 45.795 66.0248 45.445 65.5948 45.205C65.1748 44.955 64.7098 44.83 64.1998 44.83C63.6898 44.83 63.2248 44.95 62.8048 45.19C62.3848 45.43 62.0498 45.78 61.7998 46.24C61.5498 46.7 61.4248 47.24 61.4248 47.86C61.4248 48.49 61.5498 49.04 61.7998 49.51C62.0498 49.97 62.3848 50.325 62.8048 50.575C63.2248 50.815 63.6898 50.935 64.1998 50.935C64.7098 50.935 65.1748 50.815 65.5948 50.575C66.0248 50.325 66.3648 49.97 66.6148 49.51C66.8648 49.04 66.9898 48.495 66.9898 47.875Z" fill="#647E68"/>
<path d="M9.288 5.988C12.144 5.988 14.34 6.804 15.876 8.436C17.436 10.044 18.216 12.372 18.216 15.42V21.324C18.216 24.252 17.436 26.508 15.876 28.092C14.34 29.652 12.084 30.432 9.108 30.432C7.068 30.432 4.932 30.36 2.7 30.216V6.132C4.86 6.036 7.056 5.988 9.288 5.988ZM9.108 8.58C8.364 8.58 7.248 8.604 5.76 8.652V27.588C7.176 27.732 8.292 27.804 9.108 27.804C10.956 27.804 12.42 27.276 13.5 26.22C14.604 25.14 15.156 23.592 15.156 21.576V15.204C15.156 13.02 14.628 11.376 13.572 10.272C12.516 9.144 11.028 8.58 9.108 8.58ZM28.8464 12C30.8624 12 32.3984 12.552 33.4544 13.656C34.5104 14.76 35.0384 16.356 35.0384 18.444V22.152H25.7864V24.276C25.7864 25.5 26.0744 26.388 26.6504 26.94C27.2504 27.468 28.1864 27.732 29.4584 27.732C30.7064 27.732 32.2664 27.54 34.1384 27.156L34.2104 29.82C31.9784 30.228 30.3824 30.432 29.4224 30.432C27.0464 30.432 25.3304 29.916 24.2744 28.884C23.2424 27.852 22.7264 26.256 22.7264 24.096V18.444C22.7264 16.356 23.2304 14.76 24.2384 13.656C25.2704 12.552 26.8064 12 28.8464 12ZM28.8464 14.556C27.9104 14.556 27.1664 14.856 26.6144 15.456C26.0624 16.032 25.7864 16.872 25.7864 17.976V19.704H31.9784V18.084C31.9784 16.932 31.6904 16.056 31.1144 15.456C30.5624 14.856 29.8064 14.556 28.8464 14.556ZM33.2384 5.34L29.8184 10.344H27.2264L29.9624 5.34H33.2384ZM42.068 14.772C42.692 13.884 43.412 13.2 44.228 12.72C45.044 12.24 45.896 12 46.784 12C48.272 12 49.424 12.528 50.24 13.584C51.056 14.616 51.464 16.128 51.464 18.12V23.808C51.464 25.992 50.948 27.648 49.916 28.776C48.884 29.88 47.288 30.432 45.128 30.432C43.016 30.432 41.468 29.892 40.484 28.812C39.5 27.732 39.008 26.088 39.008 23.88V5.412H42.068V14.772ZM46.064 14.736C45.368 14.736 44.66 15 43.94 15.528C43.22 16.056 42.596 16.776 42.068 17.688V24.24C42.068 25.416 42.332 26.316 42.86 26.94C43.412 27.564 44.168 27.876 45.128 27.876C47.312 27.876 48.404 26.64 48.404 24.168V18.552C48.404 16.008 47.624 14.736 46.064 14.736ZM62.1093 12C64.2453 12 65.8293 12.576 66.8613 13.728C67.9173 14.856 68.4453 16.464 68.4453 18.552V23.88C68.4453 25.968 67.9173 27.588 66.8613 28.74C65.8293 29.868 64.2453 30.432 62.1093 30.432C59.9733 30.432 58.3773 29.868 57.3213 28.74C56.2893 27.588 55.7733 25.968 55.7733 23.88V18.552C55.7733 16.464 56.2893 14.856 57.3213 13.728C58.3773 12.576 59.9733 12 62.1093 12ZM62.1093 14.556C61.0773 14.556 60.2733 14.88 59.6973 15.528C59.1213 16.176 58.8333 17.1 58.8333 18.3V24.132C58.8333 25.332 59.1213 26.256 59.6973 26.904C60.2733 27.552 61.0773 27.876 62.1093 27.876C63.1413 27.876 63.9453 27.552 64.5213 26.904C65.0973 26.256 65.3853 25.332 65.3853 24.132V18.264C65.3853 17.064 65.0973 16.152 64.5213 15.528C63.9453 14.88 63.1413 14.556 62.1093 14.556ZM80.7818 12C81.1178 12 81.3818 12.024 81.5738 12.072V15.528C81.2138 15.456 80.7458 15.42 80.1698 15.42C78.4898 15.42 77.1578 16.26 76.1738 17.94V30H73.1138V12.432H75.9938V15.06C76.6418 14.076 77.3618 13.32 78.1538 12.792C78.9698 12.264 79.8458 12 80.7818 12ZM89.6574 12C91.7214 12 93.2214 12.468 94.1574 13.404C95.1174 14.316 95.5974 15.78 95.5974 17.796V30H92.6814V27.192C91.2894 29.352 89.7174 30.432 87.9654 30.432C86.5734 30.432 85.4574 29.952 84.6174 28.992C83.8014 28.032 83.3934 26.724 83.3934 25.068V24.06C83.3934 22.62 83.8854 21.432 84.8694 20.496C85.8534 19.536 87.1734 19.056 88.8294 19.056C89.7414 19.056 90.9774 19.212 92.5374 19.524V17.544C92.5374 16.512 92.2974 15.768 91.8174 15.312C91.3614 14.856 90.6414 14.628 89.6574 14.628C88.5054 14.628 86.8854 14.808 84.7974 15.168V12.54C87.0534 12.18 88.6734 12 89.6574 12ZM89.5854 21.432C88.5774 21.432 87.8094 21.696 87.2814 22.224C86.7534 22.752 86.4894 23.496 86.4894 24.456V24.852C86.4894 25.74 86.6934 26.436 87.1014 26.94C87.5094 27.444 88.0254 27.696 88.6494 27.696C89.2974 27.696 89.9574 27.42 90.6294 26.868C91.3254 26.292 91.9614 25.488 92.5374 24.456V21.684C91.6254 21.516 90.6414 21.432 89.5854 21.432ZM113.018 5.988C114.314 5.988 116.006 6.18 118.094 6.564L118.022 9.264C116.054 8.88 114.386 8.688 113.018 8.688C111.626 8.688 110.618 8.964 109.994 9.516C109.394 10.068 109.094 10.908 109.094 12.036V12.972C109.094 13.572 109.166 14.052 109.31 14.412C109.478 14.748 109.766 15.048 110.174 15.312C110.582 15.552 111.194 15.804 112.01 16.068L115.358 17.184C116.966 17.736 118.094 18.468 118.742 19.38C119.414 20.292 119.75 21.624 119.75 23.376V24.06C119.75 26.196 119.126 27.792 117.878 28.848C116.654 29.904 114.638 30.432 111.83 30.432C110.462 30.432 108.71 30.192 106.574 29.712L106.646 26.94C108.638 27.42 110.342 27.66 111.758 27.66C113.558 27.66 114.83 27.396 115.574 26.868C116.318 26.316 116.69 25.464 116.69 24.312V23.124C116.69 22.284 116.498 21.648 116.114 21.216C115.754 20.76 115.106 20.376 114.17 20.064L110.462 18.84C108.806 18.288 107.654 17.58 107.006 16.716C106.358 15.828 106.034 14.496 106.034 12.72V12.324C106.034 10.236 106.586 8.664 107.69 7.608C108.818 6.528 110.594 5.988 113.018 5.988ZM129.504 12C131.64 12 133.224 12.576 134.256 13.728C135.312 14.856 135.84 16.464 135.84 18.552V23.88C135.84 25.968 135.312 27.588 134.256 28.74C133.224 29.868 131.64 30.432 129.504 30.432C127.368 30.432 125.772 29.868 124.716 28.74C123.684 27.588 123.168 25.968 123.168 23.88V18.552C123.168 16.464 123.684 14.856 124.716 13.728C125.772 12.576 127.368 12 129.504 12ZM129.504 14.556C128.472 14.556 127.668 14.88 127.092 15.528C126.516 16.176 126.228 17.1 126.228 18.3V24.132C126.228 25.332 126.516 26.256 127.092 26.904C127.668 27.552 128.472 27.876 129.504 27.876C130.536 27.876 131.34 27.552 131.916 26.904C132.492 26.256 132.78 25.332 132.78 24.132V18.264C132.78 17.064 132.492 16.152 131.916 15.528C131.34 14.88 130.536 14.556 129.504 14.556ZM145.767 12C147.831 12 149.331 12.468 150.267 13.404C151.227 14.316 151.707 15.78 151.707 17.796V30H148.791V27.192C147.399 29.352 145.827 30.432 144.075 30.432C142.683 30.432 141.567 29.952 140.727 28.992C139.911 28.032 139.503 26.724 139.503 25.068V24.06C139.503 22.62 139.995 21.432 140.979 20.496C141.963 19.536 143.283 19.056 144.939 19.056C145.851 19.056 147.087 19.212 148.647 19.524V17.544C148.647 16.512 148.407 15.768 147.927 15.312C147.471 14.856 146.751 14.628 145.767 14.628C144.615 14.628 142.995 14.808 140.907 15.168V12.54C143.163 12.18 144.783 12 145.767 12ZM145.695 21.432C144.687 21.432 143.919 21.696 143.391 22.224C142.863 22.752 142.599 23.496 142.599 24.456V24.852C142.599 25.74 142.803 26.436 143.211 26.94C143.619 27.444 144.135 27.696 144.759 27.696C145.407 27.696 146.067 27.42 146.739 26.868C147.435 26.292 148.071 25.488 148.647 24.456V21.684C147.735 21.516 146.751 21.432 145.695 21.432ZM164.243 12C164.579 12 164.843 12.024 165.035 12.072V15.528C164.675 15.456 164.207 15.42 163.631 15.42C161.951 15.42 160.619 16.26 159.635 17.94V30H156.575V12.432H159.455V15.06C160.103 14.076 160.823 13.32 161.615 12.792C162.431 12.264 163.307 12 164.243 12ZM173.796 12C175.812 12 177.348 12.552 178.404 13.656C179.46 14.76 179.988 16.356 179.988 18.444V22.152H170.736V24.276C170.736 25.5 171.024 26.388 171.6 26.94C172.2 27.468 173.136 27.732 174.408 27.732C175.656 27.732 177.216 27.54 179.088 27.156L179.16 29.82C176.928 30.228 175.332 30.432 174.372 30.432C171.996 30.432 170.28 29.916 169.224 28.884C168.192 27.852 167.676 26.256 167.676 24.096V18.444C167.676 16.356 168.18 14.76 169.188 13.656C170.22 12.552 171.756 12 173.796 12ZM173.796 14.556C172.86 14.556 172.116 14.856 171.564 15.456C171.012 16.032 170.736 16.872 170.736 17.976V19.704H176.928V18.084C176.928 16.932 176.64 16.056 176.064 15.456C175.512 14.856 174.756 14.556 173.796 14.556ZM189.177 12C190.185 12 191.397 12.144 192.813 12.432L192.741 15.024C191.493 14.736 190.353 14.592 189.321 14.592C187.161 14.592 186.081 15.288 186.081 16.68V17.004C186.081 17.436 186.189 17.784 186.405 18.048C186.645 18.312 187.065 18.588 187.665 18.876L191.049 20.46C193.089 21.42 194.109 22.824 194.109 24.672V25.464C194.085 27.12 193.581 28.368 192.597 29.208C191.637 30.024 190.113 30.432 188.025 30.432C186.945 30.432 185.397 30.18 183.381 29.676L183.525 26.94C185.325 27.468 186.801 27.732 187.953 27.732C189.129 27.732 189.945 27.576 190.401 27.264C190.857 26.928 191.085 26.388 191.085 25.644V25.284C191.085 24.708 190.965 24.252 190.725 23.916C190.509 23.58 190.137 23.292 189.609 23.052L186.117 21.504C185.061 21.024 184.281 20.448 183.777 19.776C183.297 19.104 183.057 18.324 183.057 17.436V16.932C183.105 15.3 183.609 14.076 184.569 13.26C185.553 12.42 187.089 12 189.177 12Z" fill="#647E68"/>
</svg>
